<svg width="136" height="139" viewBox="0 0 136 139" fill="none" xmlns="http://www.w3.org/2000/svg">
<rect x="60" width="17" height="85" rx="8.5" fill="white"/>
<mask id="path-2-inside-1_828_75" fill="white">
<path d="M44.7764 28.1433C45.5149 31.3415 43.9658 34.5898 41.2512 36.4351C28.4257 45.1534 20.0001 59.861 20 76.5382C20 103.302 41.6968 124.999 68.4609 124.999C95.2252 124.999 116.922 103.302 116.922 76.5382C116.922 59.9373 108.574 45.2875 95.8475 36.5549C93.151 34.7046 91.6165 31.4669 92.3522 28.2805C93.3787 23.8346 98.2457 21.4357 102.089 23.8955C119.428 34.994 130.922 54.4231 130.922 76.5382L130.917 77.3458C130.485 111.47 102.688 138.999 68.4609 138.999L67.6533 138.994C33.7982 138.565 6.43389 111.201 6.00488 77.3458L6 76.5382C6.00009 54.325 17.5956 34.8195 35.0638 23.7455C38.9066 21.3094 43.7526 23.71 44.7764 28.1433Z"/>
</mask>
<path d="M44.7764 28.1433C45.5149 31.3415 43.9658 34.5898 41.2512 36.4351C28.4257 45.1534 20.0001 59.861 20 76.5382C20 103.302 41.6968 124.999 68.4609 124.999C95.2252 124.999 116.922 103.302 116.922 76.5382C116.922 59.9373 108.574 45.2875 95.8475 36.5549C93.151 34.7046 91.6165 31.4669 92.3522 28.2805C93.3787 23.8346 98.2457 21.4357 102.089 23.8955C119.428 34.994 130.922 54.4231 130.922 76.5382L130.917 77.3458C130.485 111.47 102.688 138.999 68.4609 138.999L67.6533 138.994C33.7982 138.565 6.43389 111.201 6.00488 77.3458L6 76.5382C6.00009 54.325 17.5956 34.8195 35.0638 23.7455C38.9066 21.3094 43.7526 23.71 44.7764 28.1433Z" fill="#D9D9D9"/>
<path d="M20 76.5382L6 76.5381L6 76.5382L20 76.5382ZM68.4609 124.999L68.4609 138.999L68.4609 138.999L68.4609 124.999ZM116.922 76.5382L130.922 76.5382L130.922 76.5381L116.922 76.5382ZM130.922 76.5382L144.922 76.6228L144.922 76.5805L144.922 76.5381L130.922 76.5382ZM130.917 77.3458L144.916 77.5232L144.916 77.4768L144.917 77.4304L130.917 77.3458ZM68.4609 138.999L68.3763 152.999L68.4186 152.999L68.4609 152.999L68.4609 138.999ZM67.6533 138.994L67.4759 152.993L67.5223 152.994L67.5687 152.994L67.6533 138.994ZM6.00488 77.3458L-7.99486 77.4304L-7.99458 77.4768L-7.99399 77.5232L6.00488 77.3458ZM6 76.5382L-8 76.5381L-8 76.5805L-7.99974 76.6228L6 76.5382ZM41.2512 36.4351L33.3808 24.8569C16.8858 36.0695 6.00011 55.0288 6 76.5381L20 76.5382L34 76.5382C34.0001 64.6932 39.9655 54.2374 49.1217 48.0134L41.2512 36.4351ZM20 76.5382L6 76.5382C6.00001 111.034 33.9649 138.999 68.4609 138.999L68.4609 124.999L68.461 110.999C49.4288 110.999 34 95.5703 34 76.5382L20 76.5382ZM68.4609 124.999L68.4609 138.999C102.957 138.999 130.922 111.034 130.922 76.5382L116.922 76.5382L102.922 76.5382C102.922 95.5704 87.4932 110.999 68.4609 110.999L68.4609 124.999ZM116.922 76.5382L130.922 76.5381C130.922 55.1283 120.137 36.2427 103.768 25.0111L95.8475 36.5549L87.9265 48.0986C97.0112 54.3322 102.922 64.7462 102.922 76.5382L116.922 76.5382ZM102.089 23.8955L94.5413 35.6869C108.031 44.321 116.922 59.3954 116.922 76.5382L130.922 76.5382L144.922 76.5381C144.922 49.4509 130.826 25.667 109.636 12.1041L102.089 23.8955ZM130.922 76.5382L116.922 76.4535L116.917 77.2612L130.917 77.3458L144.917 77.4304L144.922 76.6228L130.922 76.5382ZM130.917 77.3458L116.918 77.1684C116.583 103.64 95.015 124.999 68.4609 124.999L68.4609 138.999L68.4609 152.999C110.36 152.999 144.386 119.3 144.916 77.5232L130.917 77.3458ZM68.4609 138.999L68.5456 124.999L67.738 124.994L67.6533 138.994L67.5687 152.994L68.3763 152.999L68.4609 138.999ZM67.6533 138.994L67.8308 124.995C41.5688 124.662 20.3365 103.43 20.0038 77.1684L6.00488 77.3458L-7.99399 77.5232C-7.46877 118.972 26.0277 152.468 67.4759 152.993L67.6533 138.994ZM6.00488 77.3458L20.0046 77.2612L19.9997 76.4535L6 76.5382L-7.99974 76.6228L-7.99486 77.4304L6.00488 77.3458ZM6 76.5382L20 76.5382C20.0001 59.3189 28.9707 44.1844 42.5597 35.5697L35.0638 23.7455L27.5679 11.9213C6.22041 25.4545 -7.99989 49.3312 -8 76.5381L6 76.5382ZM35.0638 23.7455L42.5597 35.5697C40.158 37.0923 37.2409 37.0748 35.0537 36.0534C33.0048 35.0967 31.6007 33.3086 31.1353 31.2933L44.7764 28.1433L58.4174 24.9933C55.5724 12.6729 40.8346 3.51088 27.5679 11.9213L35.0638 23.7455ZM95.8475 36.5549L103.768 25.0111C105.038 25.8822 106.753 28.1405 105.993 31.43L92.3522 28.2805L78.7111 25.131C76.4802 34.7933 81.264 43.527 87.9265 48.0986L95.8475 36.5549ZM92.3522 28.2805L105.993 31.43C105.527 33.4492 104.118 35.2403 102.063 36.1952C99.8674 37.215 96.9417 37.2233 94.5413 35.6869L102.089 23.8955L109.636 12.1041C96.3648 3.60951 81.5621 12.7828 78.7111 25.131L92.3522 28.2805ZM41.2512 36.4351L49.1217 48.0134C55.8282 43.4545 60.6576 34.6944 58.4174 24.9933L44.7764 28.1433L31.1353 31.2933C30.3722 27.9887 32.1035 25.7251 33.3808 24.8569L41.2512 36.4351Z" fill="white" mask="url(#path-2-inside-1_828_75)"/>
</svg>
