<svg width="138" height="139" viewBox="0 0 138 139" fill="none" xmlns="http://www.w3.org/2000/svg">
<mask id="path-1-inside-1_828_34" fill="white">
<ellipse cx="71.0061" cy="113.5" rx="13" ry="11.5"/>
</mask>
<ellipse cx="71.0061" cy="113.5" rx="13" ry="11.5" fill="white"/>
<path d="M84.0061 113.5H70.0061C70.0061 112.211 70.6284 111.406 70.9225 111.146C71.1903 110.909 71.2608 111 71.0061 111V125V139C84.2552 139 98.0061 129.147 98.0061 113.5H84.0061ZM71.0061 125V111C70.7514 111 70.8219 110.909 71.0897 111.146C71.3838 111.406 72.0061 112.211 72.0061 113.5H58.0061H44.0061C44.0061 129.147 57.757 139 71.0061 139V125ZM58.0061 113.5H72.0061C72.0061 114.789 71.3838 115.594 71.0897 115.854C70.8219 116.091 70.7514 116 71.0061 116V102V88C57.757 88 44.0061 97.8529 44.0061 113.5H58.0061ZM71.0061 102V116C71.2608 116 71.1903 116.091 70.9225 115.854C70.6284 115.594 70.0061 114.789 70.0061 113.5H84.0061H98.0061C98.0061 97.8529 84.2552 88 71.0061 88V102Z" fill="white" mask="url(#path-1-inside-1_828_34)"/>
<path d="M70.1033 69.5498C81.9027 69.5498 92.6693 73.6355 100.838 80.3593C103.469 82.5242 103.545 86.3992 101.368 89.0194C98.6412 92.301 93.5798 92.2219 90.1068 89.7436C84.7454 85.9178 77.8928 83.5498 70.1033 83.5498C61.958 83.5499 54.8367 86.1391 49.3741 90.2769C45.9093 92.9014 40.7058 93.0773 37.9283 89.7338C35.8109 87.1848 35.8329 83.4293 38.3266 81.2469C46.6107 73.9974 57.7943 69.55 70.1033 69.5498Z" fill="white"/>
<path d="M70.447 37.9072C88.2473 38.1157 104.576 43.969 117.433 53.6193C120.403 55.8489 120.707 60.0935 118.354 62.9675C115.819 66.0653 111.213 66.3532 107.965 64.0127C97.5157 56.4828 84.241 51.9014 69.4626 51.9014C54.3152 51.9015 40.7472 56.714 30.1823 64.5816C26.9363 66.9989 22.2628 66.7479 19.6995 63.616C17.3758 60.777 17.6436 56.5913 20.5426 54.3429C33.7744 44.0809 50.8378 37.9015 69.4626 37.9014L70.447 37.9072Z" fill="white"/>
<path d="M69.1622 6.25293C93.8863 6.25293 116.634 14.0724 134.669 27.1804C137.763 29.4286 138.175 33.8045 135.764 36.7726C133.305 39.7989 128.859 40.2027 125.685 37.9386C110.221 26.9082 90.7033 20.2529 69.1622 20.2529C47.2679 20.253 27.4638 27.1281 11.8819 38.4845C8.70843 40.7974 4.21983 40.4146 1.74393 37.3666C-0.648756 34.421 -0.261926 30.0828 2.78489 27.8204C20.9564 14.3275 44.0386 6.25299 69.1622 6.25293Z" fill="white"/>
</svg>
